#!OML:ASF E:\Steps\Project 1\Capture day 1\Session 2\Subject.ASF
:FULLY-SPECIFIED
:DEGREES
166
root -1.43285 17.9251 20.5625 -154.437 0.91986 178.114
lowerback -28.7185 -3.43976 -7.80283
upperback -0.644974 -1.32471 -0.0594953
thorax 14.685 -0.873685 3.72921
lowerneck -3.01173 -3.4839 -0.352408
upperneck 8.0108 -4.81273 4.611
head 3.2437 -2.14178 1.38753
rclavicle 2.08724e-015 3.97569e-015
rhumerus -39.9672 -18.6642 -77.0081
rradius 32.1001
rwrist -2.134
rhand -8.49961 -54.7784
rfingers 7.12502
rthumb 17.4281 -84.0171
lclavicle 2.08724e-015 3.97569e-015
lhumerus -30.2627 7.9351 77.8017
lradius 19.3704
lwrist -7.47817
lhand -20.9074 -12.9894
lfingers 7.12502
lthumb 5.46377 16.9202
rfemur -23.8545 5.38941 19.5504
rtibia 10.3371
rfoot -20.0255 -2.54736
rtoes -24.7394
lfemur -22.1238 -2.57029 -25.3046
ltibia 6.76611
lfoot -5.92349 -7.93665
ltoes -18.8664
167
root -1.42943 17.9532 20.6135 -154.67 1.33815 178.415
lowerback -27.8317 -3.15385 -7.65542
upperback -0.737348 -1.11871 -0.0355323
thorax 14.1372 -0.766419 3.77135
lowerneck -3.19242 -3.45932 -0.316174
upperneck 8.26914 -4.78367 4.53639
head 3.36262 -2.11952 1.3555
rclavicle 3.67752e-015 -1.59028e-015
rhumerus -39.8526 -18.4493 -77.3137
rradius 32.1763
rwrist -3.29089
rhand -8.67917 -57.2819
rfingers 7.12502
rthumb 17.2553 -86.5359
lclavicle 3.67752e-015 -1.59028e-015
lhumerus -30.1905 7.96318 77.7836
lradius 19.3335
lwrist -7.50439
lhand -20.9518 -12.7845
lfingers 7.12502
lthumb 5.42084 17.1262
rfemur -24.2113 6.48744 19.5358
rtibia 10.8842
rfoot -20.0599 -3.16592
rtoes -24.6597
lfemur -22.245 -2.74454 -24.7096
ltibia 6.99391
lfoot -6.27537 -6.93729
ltoes -22.1945
168
root -1.42795 17.9563 20.6148 -154.684 1.28615 178.39
lowerback -27.6649 -3.20589 -7.73659
upperback -0.834115 -1.17737 -0.00247904
thorax 13.9562 -0.786955 3.83241
lowerneck -3.01376 -3.48932 -0.229352
upperneck 8.16602 -4.81467 4.41968
head 3.28674 -2.14159 1.30285
rclavicle 1.68967e-015 -7.95139e-016
rhumerus -40.0497 -18.623 -77.0646
rradius 32.1476
rwrist -2.60723
rhand -7.29718 -58.4546
rfingers 7.12502
rthumb 18.585 -87.5868
lclavicle 1.68967e-015 -7.95139e-016
lhumerus -30.4272 7.87512 77.8283
lradius 19.4351
lwrist -7.28227
lhand -21.037 -12.245
lfingers 7.12502
lthumb 5.33858 17.6678
rfemur -24.2035 6.44192 19.5239
rtibia 10.8914
rfoot -20.0197 -3.15952
rtoes -24.4495
lfemur -22.2563 -2.82774 -24.6836
ltibia 7.03611
lfoot -6.25396 -6.93134
ltoes -20.8391
169
root -1.42819 17.9571 20.6122 -154.704 1.35527 178.387
lowerback -27.909 -3.17306 -7.69437
upperback -0.667074 -1.12398 -0.0571581
thorax 14.2551 -0.778865 3.76488
lowerneck -2.84006 -3.5393 -0.138101
upperneck 7.58084 -4.88395 4.48487
head 3.05425 -2.1919 1.30785
rclavicle -1.78906e-015 -7.15625e-015
rhumerus -39.8452 -18.8786 -77.0948
rradius 32.1042
rwrist -2.31734
rhand -6.98759 -58.2434
rfingers 7.12502
rthumb 18.8828 -87.3468
lclavicle -1.78906e-015 -7.15625e-015
lhumerus -30.2298 7.96365 77.7548
lradius 19.3441
lwrist -7.32855
lhand -21.2388 -12.4001
lfingers 7.12502
lthumb 5.14377 17.5175
rfemur -24.1805 6.43463 19.5087
rtibia 10.8802
rfoot -19.9779 -3.03738
rtoes -24.161
lfemur -22.1778 -3.02275 -24.6342
ltibia 6.99784
lfoot -6.16798 -6.79362
ltoes -18.5025
170
root -1.4283 17.9579 20.612 -154.713 1.38259 178.43
lowerback -27.6856 -3.14363 -7.69837
upperback -0.807568 -1.10751 -0.0132582
thorax 13.9874 -0.756487 3.826
lowerneck -2.6235 -3.58529 -0.197034
upperneck 7.35382 -4.93695 4.53169
head 2.94133 -2.22702 1.33475
rclavicle -4.37326e-015 3.57812e-015
rhumerus -40.0594 -18.8406 -76.9541
rradius 32.1088
rwrist -2.40147
rhand -6.98879 -58.0129
rfingers 7.12502
rthumb 18.8816 -87.1165
lclavicle -4.37326e-015 3.57812e-015
lhumerus -30.4426 8.13835 77.6873
lradius 19.2136
lwrist -7.63531
lhand -21.754 -13.0482
lfingers 7.12502
lthumb 4.64633 16.8808
rfemur -24.1603 6.58855 19.5145
rtibia 10.8521
rfoot -19.9579 -3.14054
rtoes -24.1572
lfemur -22.1481 -3.17665 -24.5371
ltibia 6.9857
lfoot -6.11504 -6.66988
ltoes -17.2747
171
root -1.42482 17.9577 20.6177 -154.668 1.32853 178.432
lowerback -27.8481 -3.14068 -7.67885
upperback -0.69548 -1.09192 -0.0566444
thorax 14.1897 -0.760026 3.77064
lowerneck -2.72918 -3.56751 -0.12632
upperneck 7.3089 -4.92055 4.5479
head 2.94369 -2.21693 1.32673
rclavicle 9.93923e-016 -7.15625e-015
rhumerus -39.8412 -19.0006 -77.0654
rradius 32.0739
rwrist -2.3981
rhand -6.92027 -57.7061
rfingers 7.12502
rthumb 18.9475 -86.8033
lclavicle 9.93923e-016 -7.15625e-015
lhumerus -30.1987 7.98564 77.7115
lradius 19.1574
lwrist -7.35999
lhand -21.2784 -12.7925
lfingers 7.12502
lthumb 5.10551 17.126
rfemur -24.2352 6.66918 19.5426
rtibia 10.8994
rfoot -19.9425 -3.28796
rtoes -24.3454
lfemur -22.2703 -2.997 -24.5528
ltibia 7.06231
lfoot -6.09658 -6.86161
ltoes -17.4528
172
root -1.42572 17.9567 20.6156 -154.685 1.31598 178.438
lowerback -27.654 -3.15994 -7.71553
upperback -0.821668 -1.12741 -0.00255539
thorax 13.9592 -0.765056 3.84
lowerneck -2.72782 -3.60042 -0.161446
upperneck 7.39395 -4.96112 4.49643
head 2.97274 -2.23761 1.31452
rclavicle -1.19271e-014 1.74931e-014
rhumerus -40.0642 -18.8964 -76.9283
rradius 32.1927
rwrist -2.25128
rhand -7.12541 -56.5953
rfingers 7.12502
rthumb 18.7502 -85.7117
lclavicle -1.19271e-014 1.74931e-014
lhumerus -30.4358 7.91413 77.7952
lradius 19.2075
lwrist -7.06971
lhand -21.0848 -12.5338
lfingers 7.12502
lthumb 5.29248 17.3801
rfemur -24.2267 6.54172 19.5631
rtibia 10.9008
rfoot -19.916 -3.19649
rtoes -24.4618
lfemur -22.2365 -3.04359 -24.5482
ltibia 7.03358
lfoot -6.10576 -6.80229
ltoes -17.6641
173
root -1.42464 17.9547 20.6137 -154.665 1.34754 178.459
lowerback -27.9265 -3.14529 -7.66352
upperback -0.659891 -1.10061 -0.0362821
thorax 14.2692 -0.768617 3.77959
lowerneck -2.72055 -3.72382 -0.187466
upperneck 6.96868 -5.13499 4.72341
head 2.84127 -2.33006 1.38724
rclavicle 3.77691e-015 8.34896e-015
rhumerus -39.838 -19.1487 -76.9584
rradius 32.2647
rwrist -1.74323
rhand -8.28014 -53.9944
rfingers 7.12502
rthumb 17.6393 -83.2142
lclavicle 3.77691e-015 8.34896e-015
lhumerus -30.1891 8.01054 77.7553
lradius 19.1726
lwrist -7.1186
lhand -21.0585 -12.4519
lfingers 7.12502
lthumb 5.31788 17.4613
rfemur -24.2503 6.50553 19.594
rtibia 10.8838
rfoot -19.9513 -3.07988
rtoes -24.2201
lfemur -22.2392 -2.98156 -24.5401
ltibia 7.02456
lfoot -6.11372 -6.86953
ltoes -17.7216
174
root -1.42377 17.955 20.6155 -154.693 1.36132 178.416
lowerback -27.8354 -3.16512 -7.72611
upperback -0.702271 -1.11306 -0.0368257
thorax 14.1795 -0.772635 3.80987
lowerneck -2.7296 -3.61744 -0.137746
upperneck 7.20361 -4.9886 4.57842
head 2.91138 -2.25364 1.33623
rclavicle 4.67144e-015 -1.03368e-014
rhumerus -39.9175 -19.1583 -76.9053
rradius 32.3266
rwrist -1.5358
rhand -7.86405 -53.9273
rfingers 7.12502
rthumb 18.0396 -83.1107
lclavicle 4.67144e-015 -1.03368e-014
lhumerus -30.2822 8.03861 77.7463
lradius 19.1922
lwrist -7.16805
lhand -21.084 -12.3027
lfingers 7.12502
lthumb 5.29321 17.6112
rfemur -24.2181 6.61723 19.5193
rtibia 10.8907
rfoot -20.0571 -3.19227
rtoes -24.2567
lfemur -22.2251 -2.96975 -24.5905
ltibia 7.03337
lfoot -6.2351 -6.8483
ltoes -19.0127
175
root -1.42268 17.9573 20.6203 -154.773 1.39661 178.324
lowerback -27.8142 -3.16879 -7.80218
upperback -0.638491 -1.09306 -0.0837954
thorax 14.2401 -0.774039 3.80718
lowerneck -2.55741 -3.71257 -0.206366
upperneck 6.88378 -5.11277 4.72523
head 2.7823 -2.32341 1.39454
rclavicle 1.19271e-015 3.22031e-014
rhumerus -39.8061 -19.0949 -77.0233
rradius 32.3493
rwrist -1.56135
rhand -7.82018 -54.2737
rfingers 7.12502
rthumb 18.0819 -83.4532
lclavicle 1.19271e-015 3.22031e-014
lhumerus -30.1966 7.94521 77.7764
lradius 19.2078
lwrist -7.11328
lhand -20.9592 -12.3537
lfingers 7.12502
lthumb 5.4137 17.5571
rfemur -24.1669 6.72565 19.3874
rtibia 10.9407
rfoot -20.0836 -3.33688
rtoes -24.4061
lfemur -22.1837 -2.96422 -24.6922
ltibia 7.06355
lfoot -6.26083 -6.80242
ltoes -19.2332
